<?xml version="1.0" standalone="no"?>
<!DOCTYPE svg PUBLIC "-//W3C//DTD SVG 20010904//EN"
 "http://www.w3.org/TR/2001/REC-SVG-20010904/DTD/svg10.dtd">
<svg version="1.0" xmlns="http://www.w3.org/2000/svg"
 width="512.000000pt" height="512.000000pt" viewBox="0 0 512.000000 512.000000"
 preserveAspectRatio="xMidYMid meet">
<metadata>
Created by potrace 1.16, written by Peter Selinger 2001-2019
</metadata>
<g transform="translate(0.000000,512.000000) scale(0.100000,-0.100000)"
fill="#000000" stroke="none">
<path d="M1577 4758 c-32 -53 -140 -253 -172 -320 -24 -50 -35 -86 -35 -119 0
-44 -2 -47 -70 -105 -177 -149 -256 -368 -176 -486 30 -45 156 -118 262 -153
49 -16 93 -32 97 -36 4 -3 10 -50 12 -105 7 -142 12 -167 54 -231 69 -107 172
-181 363 -261 44 -19 47 -23 54 -67 3 -26 4 -77 0 -114 -4 -36 -11 -110 -16
-164 -4 -54 -10 -100 -11 -101 -12 -9 -76 -26 -100 -26 -15 0 -39 -5 -53 -11
-27 -12 -56 -72 -56 -114 0 -34 33 -65 69 -65 31 0 41 -14 41 -59 0 -37 39
-93 72 -105 21 -7 44 -3 105 18 43 16 111 36 150 46 40 9 79 22 86 29 18 14
34 91 47 215 6 54 12 102 15 107 6 8 25 107 50 253 8 43 16 81 20 84 3 3 54 0
113 -7 278 -34 360 -33 616 5 54 8 101 12 104 10 2 -3 -1 -40 -7 -83 -6 -43
-16 -125 -21 -183 -19 -188 -29 -262 -34 -267 -3 -3 -44 -9 -90 -13 -91 -9
-157 -36 -183 -76 -12 -18 -12 -24 -1 -35 8 -8 20 -29 27 -47 8 -18 31 -48 53
-66 68 -59 290 -107 348 -76 36 19 143 162 183 244 22 44 52 99 67 121 15 22
46 69 70 105 l42 65 -7 90 c-9 111 -10 273 -2 281 3 3 50 10 104 15 99 9 192
35 306 86 l59 26 120 -59 c85 -41 130 -70 153 -97 l33 -39 4 -166 3 -167 55
-80 c56 -82 82 -97 103 -63 8 11 7 88 -2 260 l-12 243 -37 55 c-52 78 -166
187 -268 256 -48 32 -93 63 -100 69 -10 7 -20 6 -32 -1 -30 -19 -358 -1 -472
26 -82 20 -111 22 -225 17 -71 -4 -188 -14 -260 -22 -307 -38 -439 -30 -496
32 -40 43 -129 210 -143 268 -4 16 -12 32 -17 36 -5 3 2 31 18 65 32 69 43
194 24 280 -21 94 -119 225 -212 284 l-45 30 7 62 c4 35 19 130 34 211 14 82
25 161 23 175 -5 47 -34 39 -72 -20 -19 -29 -42 -62 -53 -73 -10 -11 -45 -51
-77 -89 -33 -37 -83 -84 -112 -103 l-52 -35 -93 16 c-51 9 -110 16 -130 16
-36 0 -40 3 -73 60 -20 33 -49 105 -66 159 -27 86 -42 111 -66 111 -2 0 -10
-10 -17 -22z m53 -133 c12 -38 35 -91 51 -118 32 -52 36 -67 16 -67 -36 0
-122 -35 -197 -80 -46 -27 -85 -50 -88 -50 -2 0 -1 17 3 38 7 36 54 138 111
237 16 28 38 67 48 88 11 21 23 34 26 30 4 -5 17 -39 30 -78z m685 -100 c-14
-82 -25 -162 -25 -178 0 -34 7 -35 -127 19 l-91 38 39 28 c47 34 54 41 147
146 39 46 72 88 72 94 0 6 2 9 5 6 3 -3 -6 -72 -20 -153z m-571 -150 c9 -20
22 -35 32 -35 13 0 15 6 10 35 l-7 35 45 0 c90 0 296 -55 401 -108 64 -32 157
-95 195 -132 132 -129 167 -318 89 -480 -42 -88 -74 -122 -150 -160 -47 -24
-72 -29 -165 -35 -60 -3 -169 -15 -242 -27 -152 -24 -227 -18 -288 24 l-34 23
71 3 c60 2 70 5 67 20 -3 14 -19 18 -93 22 -64 4 -98 10 -117 23 -21 15 -30
16 -46 6 -44 -27 -303 92 -350 161 -21 31 -23 44 -20 111 4 106 47 189 148
289 71 70 213 176 287 214 28 14 121 43 145 45 4 1 14 -15 22 -34z m776 -805
c0 -21 78 -174 121 -237 64 -93 203 -121 444 -90 66 9 195 23 286 33 l166 18
124 -29 c106 -24 153 -28 319 -32 107 -3 199 -9 204 -14 6 -6 6 -9 -1 -9 -6 0
-21 -20 -33 -45 -23 -48 -37 -54 -75 -29 -13 9 -29 13 -35 9 -18 -11 -11 -31
17 -44 18 -8 23 -15 15 -23 -20 -20 -237 -88 -282 -88 -74 0 -161 -18 -271
-55 -120 -40 -119 -40 -119 -19 0 15 -10 16 -87 10 -49 -4 -165 -18 -260 -32
-208 -29 -280 -30 -482 -4 -86 10 -230 21 -321 23 -156 4 -170 6 -255 37 -226
82 -363 180 -425 303 -28 56 -30 68 -30 169 0 67 4 108 10 108 6 0 29 -17 53
-39 23 -21 51 -43 62 -48 56 -28 177 -31 312 -8 48 9 142 18 208 21 104 6 128
10 182 36 35 16 80 46 100 66 40 39 53 42 53 12z m1759 -408 c75 -48 223 -198
248 -252 17 -38 23 -80 32 -254 7 -114 10 -210 8 -212 -8 -8 -60 69 -74 109
-10 28 -13 82 -12 178 2 125 0 140 -20 172 -30 49 -74 80 -196 138 -58 27
-105 52 -105 55 0 3 9 17 20 31 11 14 20 39 20 55 0 21 4 27 13 22 6 -4 36
-23 66 -42z m-669 -319 c0 -42 5 -114 12 -160 14 -97 11 -108 -82 -243 -31
-47 -74 -119 -93 -160 -20 -42 -62 -107 -94 -145 l-59 -70 -56 -3 c-82 -4
-214 37 -256 81 -18 18 -32 36 -32 40 0 13 117 7 153 -8 67 -28 150 -14 210
36 21 17 54 66 82 119 43 83 47 101 61 213 8 67 19 158 25 203 7 44 12 95 13
112 1 28 6 34 41 46 74 26 75 26 75 -61z m-1486 37 c39 -6 72 -12 74 -15 6 -6
-26 -147 -54 -235 -12 -41 -27 -103 -33 -137 -14 -89 -32 -116 -90 -141 -56
-25 -180 -45 -217 -36 -20 5 -24 12 -24 43 0 52 11 63 71 72 73 11 128 38 134
63 5 26 14 143 22 294 5 110 6 113 27 108 11 -3 52 -11 90 -16z m1216 -6 c0
-13 10 -15 56 -12 l56 3 -5 -40 c-3 -22 -12 -103 -20 -180 -20 -177 -30 -222
-67 -294 -69 -137 -149 -180 -253 -136 -21 9 -67 15 -107 15 -39 0 -70 4 -70
10 0 23 55 43 142 51 50 5 99 11 108 14 22 7 30 34 30 100 0 28 5 69 10 93 6
23 14 94 20 157 5 63 14 142 21 175 11 59 12 60 45 60 24 0 34 -5 34 -16z
m-1014 -51 c-12 -81 -36 -215 -52 -283 -8 -36 -19 -105 -24 -155 -14 -148 -12
-145 -116 -176 -49 -14 -109 -34 -133 -43 -24 -9 -51 -16 -61 -16 -26 0 -48
31 -56 77 -6 40 -5 42 22 49 63 14 148 45 178 64 41 25 52 49 76 169 11 53 31
133 44 178 14 46 28 105 32 133 l7 50 44 0 45 0 -6 -47z"/>
<path d="M1551 4161 c-20 -67 15 -116 55 -76 18 18 46 94 38 106 -3 5 -22 9
-43 9 -35 0 -39 -3 -50 -39z"/>
<path d="M1937 4100 c-20 -64 -16 -84 14 -75 11 4 26 1 34 -5 25 -21 41 -4 53
56 17 83 18 82 -35 82 l-48 1 -18 -59z"/>
<path d="M1780 3994 c-6 -14 -10 -27 -10 -29 0 -3 -18 -32 -40 -66 -50 -77
-54 -124 -12 -140 45 -18 139 8 150 40 4 11 -3 13 -34 7 -22 -5 -51 -10 -66
-13 -41 -8 -45 18 -12 73 64 102 76 125 70 139 -9 24 -36 17 -46 -11z"/>
<path d="M1487 3793 c-17 -16 -2 -34 62 -78 61 -42 77 -48 147 -56 44 -5 131
-10 194 -11 97 -3 115 -1 115 12 0 12 -31 17 -175 27 -96 6 -186 16 -200 21
-14 5 -46 28 -72 51 -46 41 -59 47 -71 34z"/>
</g>
</svg>
